<?xml version="1.0" encoding="UTF-8"?>
<!DOCTYPE svg PUBLIC "-//W3C//DTD SVG 1.1//EN" "http://www.w3.org/Graphics/SVG/1.1/DTD/svg11.dtd">
<svg xmlns="http://www.w3.org/2000/svg" version="1.1" width="1500px" height="1500px" style="shape-rendering:geometricPrecision; text-rendering:geometricPrecision; image-rendering:optimizeQuality; fill-rule:evenodd; clip-rule:evenodd" xmlns:xlink="http://www.w3.org/1999/xlink">
<g><path style="opacity:0.995" fill="#faaf40" d="M 407.5,641.5 C 514.295,478.055 658.962,361.388 841.5,291.5C 949.063,252.459 1060.06,229.959 1174.5,224C 1207.47,221.972 1240.47,221.138 1273.5,221.5C 1273.5,285.5 1273.5,349.5 1273.5,413.5C 1159.57,411.466 1048.24,427.299 939.5,461C 768.86,517.33 638.694,623.163 549,778.5C 495.299,874.927 458.632,977.593 439,1086.5C 427.041,1149.63 419.874,1213.3 417.5,1277.5C 353.5,1277.5 289.5,1277.5 225.5,1277.5C 229.294,1103.69 265.46,937.022 334,777.5C 355.178,730.129 379.678,684.796 407.5,641.5 Z"/></g>
<g><path style="opacity:0.995" fill="#5271fe" d="M 841.5,291.5 C 658.962,361.388 514.295,478.055 407.5,641.5C 407.5,523.5 407.5,405.5 407.5,287.5C 541.167,287.333 674.834,287.5 808.5,288C 819.708,288.608 830.708,289.774 841.5,291.5 Z"/></g>
<g><path style="opacity:0.994" fill="#5271ff" d="M 1178.5,508.5 C 1183.1,508.2 1187.6,508.533 1192,509.5C 1267.18,627.913 1290.18,755.913 1261,893.5C 1224.74,1037.97 1141.91,1146.47 1012.5,1219C 946.843,1253.92 876.843,1273.25 802.5,1277C 705.167,1277.5 607.834,1277.67 510.5,1277.5C 514.098,1148.34 540.264,1024.01 589,904.5C 596.727,887.379 604.727,870.379 613,853.5C 613.667,852.833 614.333,852.167 615,851.5C 615.5,924.499 615.667,997.499 615.5,1070.5C 672.501,1070.67 729.501,1070.5 786.5,1070C 892.486,1063.62 972.986,1015.45 1028,925.5C 1074.59,838.975 1078.26,750.642 1039,660.5C 1019.18,618.55 991.018,583.217 954.5,554.5C 968.131,548.754 982.131,543.921 996.5,540C 1056.27,523.539 1116.94,513.039 1178.5,508.5 Z"/></g>
</svg>
